<?xml version="1.0" standalone="no"?>
<!DOCTYPE svg PUBLIC "-//W3C//DTD SVG 20010904//EN"
 "http://www.w3.org/TR/2001/REC-SVG-20010904/DTD/svg10.dtd">
<svg version="1.0" xmlns="http://www.w3.org/2000/svg"
 width="465.000000pt" height="464.000000pt" viewBox="0 0 465.000000 464.000000"
 preserveAspectRatio="xMidYMid meet">
<metadata>
Created by potrace 1.16, written by Peter Selinger 2001-2019
</metadata>
<g transform="translate(0.000000,464.000000) scale(0.100000,-0.100000)"
fill="#fff" stroke="none">
<path d="M1690 3864 c-267 -57 -453 -155 -631 -333 -179 -179 -279 -365 -329
-610 -49 -244 -13 -506 105 -747 172 -353 515 -604 890 -652 66 -8 63 -4 100
-122 118 -370 434 -669 821 -777 92 -26 112 -28 279 -27 160 0 190 3 275 26
248 67 396 147 552 298 l98 95 -2 345 -3 345 -635 0 -635 0 -3 -109 c-1 -61 0
-116 2 -123 4 -10 20 -3 59 26 154 116 367 168 735 178 l222 6 0 -415 0 -416
-62 -51 c-208 -170 -485 -221 -732 -135 -248 86 -477 302 -620 583 -52 102
-106 238 -106 266 0 8 20 18 52 24 226 49 428 159 594 325 173 174 274 362
324 605 21 104 26 290 11 384 -9 56 -8 56 83 23 204 -74 415 -265 541 -491 20
-36 41 -65 46 -65 5 0 9 70 9 161 l0 160 -54 54 c-70 70 -203 156 -302 196
-83 33 -235 69 -295 69 -20 0 -41 6 -46 13 -5 6 -22 50 -37 97 -136 415 -491
723 -915 794 -114 19 -302 20 -391 0z m315 -54 c87 -27 217 -95 292 -153 185
-142 353 -386 438 -637 l24 -71 -22 -9 c-12 -5 -65 -20 -117 -35 -419 -115
-741 -464 -836 -905 -14 -64 -18 -125 -18 -248 1 -185 10 -172 -93 -126 -205
90 -426 319 -551 569 -131 264 -180 566 -137 850 66 437 309 717 683 785 79
15 259 4 337 -20z m769 -927 c23 -117 29 -177 29 -308 -1 -497 -214 -859 -578
-981 -44 -14 -100 -27 -125 -28 l-45 -1 -13 60 c-22 93 -21 418 1 525 80 399
295 657 620 745 83 22 104 20 111 -12z"/>
</g>
</svg>
